{"title":"Do.You.Believe.2015.1080p.BluRay.H264.AAC-RARBG","uid":12211800,"size":2469619359,"categoryP":"video","categoryS":"hd___movies","magnet":"?xt=urn:btih:f07f10438fd49d12880fe0e5c76942341c3e1b48&amp;dn=Do.You.Believe.2015.1080p.BluRay.H264.AAC-RARBG&amp;tr=udp%3A%2F%2Ftracker.openbittorrent.com%3A80&amp;tr=udp%3A%2F%2Fopen.demonii.com%3A1337&amp;tr=udp%3A%2F%2Ftracker.coppersurfer.tk%3A6969&amp;tr=udp%3A%2F%2Fexodus.desync.com%3A6969","seeders":0,"leechers":1,"uploader":"vickey1992","files":8,"time":1439109727,"description":"Video\nID                                       : 1\nFormat                                   : AVC\nFormat/Info                              : Advanced Video Codec\nFormat profile                           : &lt;a class=&quot;__cf_email__&quot; href=&quot;/cdn-cgi/l/email-protection&quot; data-cfemail=&quot;ade5c4cac5ede199839c&quot;&gt;[email&amp;#160;protected]&lt;/a&gt;&lt;script data-cfhash='f9e31' type=&quot;text/javascript&quot;&gt;\n/* &lt;![CDATA[ */!function(){try{var t=&quot;currentScript&quot;in document?document.currentScript:function(){for(var t=document.getElementsByTagName(&quot;script&quot;),e=t.length;e--;)if(t[e].getAttribute(&quot;data-cfhash&quot;))return t[e]}();if(t&amp;&amp;t.previousSibling){var e,r,n,i,c=t.previousSibling,a=c.getAttribute(&quot;data-cfemail&quot;);if(a){for(e=&quot;&quot;,r=parseInt(a.substr(0,2),16),n=2;a.length-n;n+=2)i=parseInt(a.substr(n,2),16)^r,e+=String.fromCharCode(i);e=document.createTextNode(e),c.parentNode.replaceChild(e,c)}t.parentNode.removeChild(t);}}catch(u){}}()/* ]]&gt; */&lt;/script&gt;\nFormat settings, CABAC                   : Yes\nFormat settings, ReFrames                : 4 frames\nCodec ID                                 : avc1\nCodec ID/Info                            : Advanced Video Coding\nDuration                                 : 1h 59mn\nBit rate                                 : 2 500 Kbps\nWidth                                    : 1 920 pixels\nHeight                                   : 1 080 pixels\nDisplay aspect ratio                     : 16:9\nFrame rate mode                          : Constant\nFrame rate                               : 23.976 fps\nColor space                              : YUV\nChroma subsampling                       : 4:2:0\nBit depth                                : 8 bits\nScan type                                : Progressive\nBits/(Pixel*Frame)                       : 0.050\nStream size                              : 2.09 GiB (92%)\nWriting library                          : x264 core 144 r2525M 40bb568\nEncoding settings                        : cabac=1 / ref=4 / deblock=1:-1:-1 / analyse=0x3:0x113 / me=umh / subme=9 / psy=1 / psy_rd=1.00:0.15 / mixed_ref=1 / me_range=24 / chroma_me=1 / trellis=2 / 8x8dct=1 / cqm=0 / deadzone=21,11 / fast_pskip=1 / chroma_qp_offset=-3 / threads=32 / lookahead_threads=4 / sliced_threads=0 / nr=0 / decimate=1 / interlaced=0 / bluray_compat=0 / constrained_intra=0 / bframes=3 / b_pyramid=2 / b_adapt=1 / b_bias=0 / direct=1 / weightb=1 / open_gop=0 / weightp=2 / keyint=250 / keyint_min=25 / scenecut=40 / intra_refresh=0 / rc_lookahead=50 / rc=2pass / mbtree=1 / bitrate=2500 / ratetol=1.0 / qcomp=0.60 / qpmin=0 / qpmax=69 / qpstep=4 / cplxblur=20.0 / qblur=0.5 / vbv_maxrate=31250 / vbv_bufsize=31250 / nal_hrd=none / filler=0 / ip_ratio=1.40 / aq=3:1.00\nEncoded date                             : UTC 1904-01-01 00:00:00\nTagged date                              : UTC 1904-01-01 00:00:00\n\nAudio\nID                                       : 2\nFormat                                   : AAC\nFormat/Info                              : Advanced Audio Codec\nFormat profile                           : LC\nCodec ID                                 : 40\nDuration                                 : 1h 59mn\nDuration_LastFrame                       : 43ms\nBit rate mode                            : Constant\nBit rate                                 : 224 Kbps\nChannel(s)                               : 2 channels\nChannel(s)_Original                      : 6 channels\nChannel positions                        : Front: L C R, Side: L R, LFE\nSampling rate                            : 48.0 KHz\nCompression mode                         : Lossy\nStream size                              : 192 MiB (8%)\nLanguage                                 : English\nEncoded date                             : UTC 1904-01-01 00:00:00\nTagged date                              : UTC 1904-01-01 00:00:00\n\nMenu #1\nID                                       : 3\nCodec ID                                 : text\nDuration                                 : 1h 59mn\nLanguage                                 : English\nEncoded date                             : UTC 1904-01-01 00:00:00\nTagged date                              : UTC 1904-01-01 00:00:00\nBit rate mode                            : CBR\n00:00:00.000                             : 00:00:00.000\n00:05:15.984                             : 00:05:15.941\n00:09:31.614                             : 00:09:31.571\n00:14:06.889                             : 00:14:06.846\n00:18:50.798                             : 00:18:50.755\n00:24:47.529                             : 00:24:47.486\n00:28:54.776                             : 00:28:54.733\n00:34:17.724                             : 00:34:17.681\n00:40:16.082                             : 00:40:16.039\n00:44:27.708                             : 00:44:27.665\n00:51:09.735                             : 00:51:09.692\n00:56:46.446                             : 00:56:46.403\n01:01:52.752                             : 01:01:52.709\n01:07:11.696                             : 01:07:11.653\n01:12:55.039                             : 01:12:54.996\n01:19:44.823                             : 01:19:44.780\n01:24:28.732                             : 01:24:28.689\n01:32:46.604                             : 01:32:46.561\n01:42:13.796                             : 01:42:13.753\n01:52:16.398                             : 01:52:16.355\n\nMenu #2\n00:00:00.043                             : 00:00:00.000\n00:05:15.984                             : 00:05:15.941\n00:09:31.614                             : 00:09:31.571\n00:14:06.889                             : 00:14:06.846\n00:18:50.798                             : 00:18:50.755\n00:24:47.529                             : 00:24:47.486\n00:28:54.776                             : 00:28:54.733\n00:34:17.724                             : 00:34:17.681\n00:40:16.082                             : 00:40:16.039\n00:44:27.708                             : 00:44:27.665\n00:51:09.735                             : 00:51:09.692\n00:56:46.446                             : 00:56:46.403\n01:01:52.752                             : 01:01:52.709\n01:07:11.696                             : 01:07:11.653\n01:12:55.039                             : 01:12:54.996\n01:19:44.823                             : 01:19:44.780\n01:24:28.732                             : 01:24:28.689\n01:32:46.604                             : 01:32:46.561\n01:42:13.796                             : 01:42:13.753\n01:52:16.398                             : 01:52:16.355","torrent":{"xt":"urn:btih:f07f10438fd49d12880fe0e5c76942341c3e1b48","amp;dn":"Do.You.Believe.2015.1080p.BluRay.H264.AAC-RARBG","amp;tr":["udp%3A%2F%2Ftracker.openbittorrent.com%3A80","udp%3A%2F%2Fopen.demonii.com%3A1337","udp%3A%2F%2Ftracker.coppersurfer.tk%3A6969","udp%3A%2F%2Fexodus.desync.com%3A6969"],"infoHash":"f07f10438fd49d12880fe0e5c76942341c3e1b48","infoHashBuffer":{"type":"Buffer","data":[240,127,16,67,143,212,157,18,136,15,224,229,199,105,66,52,28,62,27,72]},"announce":[],"urlList":[]}}